<?xml version="1.0" standalone="no"?>
<!DOCTYPE svg PUBLIC "-//W3C//DTD SVG 20010904//EN"
 "http://www.w3.org/TR/2001/REC-SVG-20010904/DTD/svg10.dtd">
<svg version="1.0" xmlns="http://www.w3.org/2000/svg"
 width="512.000000pt" height="512.000000pt" viewBox="0 0 512.000000 512.000000"
 preserveAspectRatio="xMidYMid meet">
<metadata>
Created by potrace 1.14, written by Peter Selinger 2001-2017
</metadata>
<g transform="translate(0.000000,512.000000) scale(0.100000,-0.100000)"
fill="#000000" stroke="none">
<path d="M2866 5098 c-14 -47 -18 -146 -7 -152 7 -5 11 6 12 31 1 46 3 68 13
111 9 36 -8 45 -18 10z"/>
<path d="M3650 5100 c-41 -34 -209 -126 -308 -170 l-92 -41 -28 19 c-15 11
-45 25 -66 32 -50 16 -215 17 -254 1 -25 -11 -35 -10 -68 8 -21 12 -47 21 -57
21 -10 0 -28 5 -39 11 -31 17 -111 -4 -183 -47 -57 -35 -63 -36 -125 -30 -80
7 -225 50 -342 100 -35 15 -38 15 -52 -5 -8 -12 -13 -26 -11 -33 2 -6 8 -33
15 -61 25 -104 67 -183 137 -256 l44 -46 -54 -84 c-30 -46 -87 -142 -127 -214
-86 -154 -193 -320 -230 -355 -3 -3 -21 -24 -39 -48 -21 -26 -56 -54 -92 -73
-33 -16 -59 -34 -59 -39 0 -13 1 -13 67 11 32 12 75 35 96 51 20 16 37 25 37
19 0 -5 -5 -13 -10 -16 -11 -7 -43 -73 -67 -139 -33 -90 -20 -377 17 -367 37
11 174 0 201 -16 16 -10 29 -21 29 -25 0 -4 4 -8 8 -8 4 0 7 41 5 90 -1 50 2
101 7 113 7 18 9 14 10 -23 1 -25 3 -56 6 -70 16 -101 16 -101 66 -106 26 -3
28 -2 22 24 -4 15 -7 29 -6 32 0 3 1 30 2 60 l2 55 13 -81 c7 -45 15 -87 20
-93 13 -22 27 -6 31 34 10 112 31 159 31 68 -1 -109 -1 -109 46 -125 23 -8 50
-19 60 -23 16 -7 17 -3 11 26 -7 37 -7 99 0 106 2 3 14 -16 25 -42 11 -25 29
-58 40 -74 20 -27 20 -28 78 -16 67 14 183 8 212 -10 40 -24 -37 -72 -131 -81
-173 -16 -249 -36 -279 -71 -60 -70 -60 -185 3 -329 23 -55 41 -107 41 -117
-1 -10 -11 -37 -21 -60 -37 -79 -110 -252 -118 -277 -19 -65 22 -178 96 -262
22 -25 40 -48 40 -50 0 -3 -23 -6 -51 -7 -29 -1 -56 -4 -61 -7 -5 -3 -55 -8
-111 -10 -56 -3 -127 -7 -157 -9 -30 -3 -98 -4 -150 -4 -340 3 -422 2 -475 -4
-33 -4 -85 -10 -115 -13 -30 -3 -69 -12 -86 -19 -29 -12 -39 -9 -220 84 -104
53 -197 95 -205 93 -27 -5 -63 -99 -53 -139 4 -12 9 -23 13 -23 8 0 239 -121
289 -152 l32 -20 -44 -51 c-44 -52 -60 -88 -71 -162 -19 -127 -12 -152 32
-119 15 12 27 25 27 30 -1 5 5 18 12 29 8 11 14 29 14 40 0 48 33 116 72 149
22 19 37 39 34 45 -4 6 7 3 23 -7 17 -9 26 -18 21 -20 -10 -4 -62 -77 -84
-120 -18 -36 -12 -104 21 -208 14 -44 22 -55 68 -82 29 -18 60 -32 69 -32 29
0 17 46 -24 93 -22 25 -40 49 -39 54 1 4 -1 15 -4 23 -15 38 -14 87 3 108 27
32 31 27 16 -21 -17 -58 -13 -78 34 -147 22 -32 40 -64 40 -69 0 -24 38 -10
47 17 11 31 4 64 -24 110 -20 32 -21 82 -1 82 5 0 7 -4 4 -8 -8 -13 61 -152
76 -153 25 -3 41 3 78 26 l38 24 -7 -32 c-4 -18 -6 -38 -5 -44 1 -7 2 -19 3
-27 0 -7 10 -16 21 -19 23 -6 84 57 127 131 l25 42 146 -76 c81 -42 170 -90
199 -105 60 -33 182 -98 264 -140 64 -33 109 -71 109 -93 0 -8 -20 -31 -44
-51 -61 -49 -66 -66 -19 -61 40 5 62 -6 143 -74 149 -125 209 -142 349 -96 58
18 81 22 103 14 15 -6 28 -11 28 -13 0 -1 -35 -72 -79 -156 -43 -85 -91 -183
-107 -219 -15 -36 -36 -77 -45 -91 -10 -14 -19 -32 -21 -40 -2 -8 -6 -16 -9
-19 -8 -7 -117 -193 -125 -214 -6 -14 95 -16 1237 -13 l1244 2 2 25 c13 140 3
346 -21 438 -19 69 -17 64 -27 90 -5 13 -9 25 -9 27 0 2 -16 36 -35 77 -85
180 -167 301 -278 412 l-89 88 35 92 c33 84 127 400 131 441 1 6 5 25 10 42 4
19 3 55 -3 85 -6 29 -13 62 -15 74 -2 12 -14 53 -25 91 -12 39 -21 77 -21 85
0 13 -60 102 -80 118 -29 24 -140 184 -149 215 -7 22 -24 71 -39 108 -23 61
-30 70 -65 84 -34 14 -38 19 -32 41 20 81 20 81 -22 100 -64 28 -106 73 -142
149 -36 75 -61 96 -119 95 -37 0 -43 6 -125 127 -76 111 -148 191 -172 191 -8
0 -15 4 -15 9 0 5 -15 14 -32 21 -18 7 -27 14 -20 17 6 2 12 11 12 18 0 8 4
16 9 19 5 4 7 -3 4 -14 -6 -24 0 -25 32 -4 15 9 27 30 31 50 3 19 10 31 15 29
4 -3 4 -17 -1 -30 -11 -29 1 -40 27 -26 30 16 143 140 143 156 0 12 5 13 26 4
30 -11 29 -11 38 17 5 15 -2 28 -29 52 -54 50 -73 95 -169 412 -19 63 -53 167
-75 230 -23 63 -41 117 -41 121 0 10 46 27 108 40 77 16 92 28 99 78 5 38 4
41 -18 41 -40 0 -107 -40 -153 -91 l-44 -49 -15 29 c-14 28 -13 31 22 79 21
27 53 79 72 116 19 36 39 66 46 66 6 0 15 4 18 10 4 6 -1 7 -11 3 -14 -5 -16
-2 -11 13 50 164 67 312 41 373 -11 26 -19 31 -46 31 -18 0 -44 -9 -58 -20z
m-1437 -1625 c-3 -9 -8 -14 -10 -11 -3 3 -2 9 2 15 9 16 15 13 8 -4z m1102
-47 c-24 -77 -33 -95 -54 -101 -20 -5 -20 -4 -2 22 11 14 27 49 37 78 21 62
38 62 19 1z m468 -1090 c27 -28 107 -99 172 -155 35 -29 56 -57 70 -93 11 -28
32 -62 47 -76 24 -24 26 -31 21 -80 -4 -40 -2 -60 11 -78 15 -24 15 -26 -39
-83 -30 -32 -55 -61 -55 -64 0 -3 -34 -35 -75 -71 -74 -66 -75 -66 -111 -55
l-36 11 27 23 c26 23 36 50 38 110 1 27 6 33 29 38 15 4 28 10 29 13 0 4 2 15
4 25 2 11 -3 39 -10 63 -7 25 -13 46 -13 47 1 1 -2 11 -5 22 -3 11 -8 32 -11
48 -5 22 -12 27 -37 27 -16 0 -44 -7 -61 -16 -28 -15 -31 -14 -52 4 -31 29
-61 42 -103 46 -21 3 -42 5 -46 5 -4 1 -3 11 4 22 8 15 9 47 4 98 -4 42 -7 90
-6 106 2 35 11 68 17 62 3 -2 30 2 62 8 83 19 100 18 125 -7z m-1943 -720 c0
-29 -12 -49 -37 -59 -19 -7 -37 -2 -83 21 -33 17 -60 34 -60 38 0 17 26 41 51
47 24 6 26 4 22 -18 -6 -32 13 -67 37 -67 34 0 48 42 25 77 -13 19 -13 22 3
25 17 4 41 -31 42 -64z m388 16 c20 -2 69 -9 107 -14 39 -6 87 -13 109 -15 21
-3 41 -7 45 -9 3 -3 27 -7 51 -11 25 -4 48 -12 52 -19 4 -7 23 -30 42 -52 34
-39 85 -177 92 -251 5 -45 23 -86 83 -182 28 -45 51 -84 51 -85 0 -1 -60 28
-134 65 -159 81 -201 122 -329 317 -89 134 -159 219 -201 242 -14 7 -26 17
-26 22 0 5 5 6 10 3 6 -4 27 -9 48 -11z m-180 -18 c71 -19 164 -93 227 -180
11 -15 31 -41 44 -57 14 -16 29 -38 35 -48 6 -11 21 -33 34 -50 l24 -31 -26
11 c-14 7 -26 16 -26 21 0 4 -4 8 -10 8 -5 0 -31 13 -57 28 -46 26 -104 49
-148 57 -11 2 -20 4 -20 5 0 1 -7 3 -16 5 -8 1 -60 19 -116 39 -55 20 -104 36
-109 36 -5 0 -18 7 -28 15 -19 15 -19 16 18 54 21 22 40 50 41 63 1 13 3 26 4
31 2 12 72 8 129 -7z m-620 -91 c3 -3 -2 -30 -12 -60 -16 -52 -30 -68 -38 -45
-2 6 -18 11 -36 13 -17 1 -33 5 -33 10 -1 4 -2 11 -3 16 0 5 -4 12 -8 16 -10
10 20 53 40 58 20 5 83 0 90 -8z m1039 -606 c73 -54 89 -60 160 -60 36 0 77
-5 91 -11 26 -10 24 -11 -33 -24 -119 -26 -143 -21 -243 46 -50 33 -95 60
-101 60 -15 0 -14 17 2 23 33 12 80 -1 124 -34z m2062 -147 c103 -154 174
-302 187 -392 21 -145 26 -260 10 -254 -7 3 -18 33 -26 67 -19 87 -85 269
-147 407 -37 81 -125 268 -144 305 l-21 40 41 -43 c23 -24 68 -82 100 -130z
m201 -722 c0 -11 -2 -20 -4 -20 -2 0 -6 9 -9 20 -3 11 -1 20 4 20 5 0 9 -9 9
-20z"/>
<path d="M3824 4778 c-26 -18 -54 -43 -62 -55 l-14 -23 38 13 c22 7 45 13 52
13 35 2 44 6 62 24 11 11 20 29 20 40 0 31 -40 25 -96 -12z"/>
<path d="M2231 891 c-19 -12 -4 -51 20 -51 22 0 24 17 6 42 -8 10 -18 13 -26
9z"/>
<path d="M665 863 c-129 -13 -257 -61 -333 -128 -106 -92 -175 -256 -174 -410
1 -64 44 -219 77 -279 l23 -41 132 -3 133 -3 -17 23 c-112 155 -141 267 -102
386 31 92 123 172 235 205 53 16 240 17 306 3 249 -55 616 -252 999 -535 l109
-81 165 0 c162 0 164 0 141 18 -60 46 -438 309 -555 385 -409 267 -781 432
-1017 452 -39 4 -76 7 -82 8 -5 2 -23 1 -40 0z"/>
<path d="M2771 747 c-9 -11 -8 -17 4 -27 19 -16 47 -5 43 17 -4 23 -31 28 -47
10z"/>
</g>
</svg>
